<?xml version="1.0" encoding="iso-8859-1"?>
<!-- Generator: Adobe Illustrator 19.0.0, SVG Export Plug-In . SVG Version: 6.00 Build 0)  -->
<svg version="1.1" id="Layer_1" xmlns="http://www.w3.org/2000/svg" xmlns:xlink="http://www.w3.org/1999/xlink" x="0px" y="0px"
	 viewBox="0 0 512.001 512.001" style="enable-background:new 0 0 512.001 512.001;" xml:space="preserve">
<g>
	<g>
		<path d="M388.726,449.21c-6.361-18.792-24.151-32.362-45.064-32.362c-20.912,0-38.703,13.57-45.063,32.362H0v30.416h298.6
			c6.36,18.792,24.15,32.362,45.063,32.362s38.703-13.57,45.063-32.362h123.275V449.21H388.726z M343.662,481.573
			c-9.459,0-17.154-7.695-17.154-17.155c0-9.459,7.695-17.154,17.154-17.154c9.459,0,17.155,7.695,17.155,17.154
			C360.816,473.877,353.121,481.573,343.662,481.573z"/>
	</g>
</g>
<g>
	<g>
		<path d="M304.4,32.375c-6.36-18.792-24.15-32.362-45.063-32.362c-20.913,0-38.703,13.571-45.063,32.362H0v30.416h214.275
			c6.36,18.792,24.15,32.362,45.063,32.362s38.703-13.57,45.063-32.362h207.6V32.375H304.4z M259.337,64.737
			c-9.459,0-17.155-7.695-17.155-17.154c0-9.459,7.695-17.155,17.155-17.155c9.459,0,17.154,7.695,17.154,17.155
			C276.492,57.042,268.796,64.737,259.337,64.737z"/>
	</g>
</g>
<g>
	<g>
		<path d="M483.245,231.953c4.06-9.801,6.654-19.959,7.801-30.216h20.955v-30.416h-21.813c-1.384-8.171-3.694-16.243-6.944-24.086
			c-11.315-27.315-32.589-48.59-59.904-59.904c-27.315-11.315-57.403-11.314-84.717,0c-27.315,11.315-48.589,32.589-59.904,59.904
			c-3.248,7.843-5.56,15.916-6.943,24.085h-74.446c-6.36-18.792-24.15-32.362-45.063-32.362s-38.703,13.57-45.063,32.362H0v30.416
			h107.206c6.36,18.792,24.15,32.362,45.063,32.362s38.703-13.57,45.063-32.362h73.587c1.147,10.258,3.741,20.416,7.801,30.216
			c11.315,27.315,32.59,48.589,59.904,59.904c13.66,5.658,28.007,8.486,42.359,8.486c2.343,0,4.685-0.083,7.025-0.234l4.208,10.158
			H281.506c-6.36-18.792-24.15-32.362-45.063-32.362c-20.913,0-38.703,13.571-45.063,32.362H0v30.416h191.381
			c6.36,18.792,24.15,32.362,45.063,32.362c20.913,0,38.703-13.57,45.063-32.362h123.306l13.368,32.273
			c3.66,8.835,10.541,15.716,19.376,19.376c4.417,1.83,9.059,2.746,13.701,2.746c4.641,0,9.284-0.916,13.7-2.745
			c8.835-3.66,15.716-10.541,19.376-19.376c3.66-8.835,3.66-18.567,0-27.402l-2.018-4.872h29.685v-30.416h-42.283l-15.558-37.558
			C466.709,261.68,476.665,247.842,483.245,231.953z M152.268,203.682c-9.459,0-17.154-7.695-17.154-17.155
			c0-9.459,7.695-17.154,17.154-17.154s17.154,7.695,17.154,17.154C169.423,195.987,161.727,203.682,152.268,203.682z
			 M236.443,342.627c-9.459,0-17.155-7.695-17.155-17.154s7.695-17.155,17.155-17.155c9.459,0,17.154,7.695,17.154,17.155
			S245.902,342.627,236.443,342.627z M456.233,357.192c0.743,1.794,0.318,3.353,0,4.122s-1.121,2.173-2.915,2.915
			c-1.792,0.742-3.353,0.318-4.122,0c-0.77-0.318-2.173-1.121-2.915-2.915l-27.966-67.517c1.685-0.605,3.361-1.252,5.026-1.942
			c0.6-0.248,1.194-0.508,1.789-0.766c0.229-0.099,0.461-0.195,0.689-0.296c0.822-0.363,1.637-0.737,2.448-1.118L456.233,357.192z
			 M426.777,255.529c-0.988,0.685-1.997,1.344-3.017,1.985c-0.208,0.131-0.414,0.266-0.624,0.394c-0.985,0.606-1.989,1.184-3,1.749
			c-0.247,0.138-0.49,0.283-0.739,0.419c-0.994,0.54-2.004,1.049-3.019,1.548c-0.271,0.133-0.534,0.276-0.807,0.406
			c-1.252,0.597-2.519,1.164-3.801,1.696c-0.023,0.009-0.045,0.02-0.068,0.03c-1.202,0.498-2.411,0.959-3.624,1.394
			c-0.109,0.039-0.217,0.081-0.326,0.12c-1.14,0.404-2.283,0.774-3.429,1.123c-0.186,0.057-0.37,0.116-0.556,0.171
			c-1.122,0.334-2.249,0.638-3.376,0.92c-0.19,0.048-0.38,0.096-0.57,0.142c-1.162,0.281-2.327,0.537-3.493,0.764
			c-0.123,0.024-0.244,0.048-0.367,0.071c-36.575,6.956-74.344-12.428-89.14-48.148c-8.205-19.81-8.205-41.629,0-61.438
			c8.205-19.809,23.634-35.238,43.443-43.443c9.906-4.103,20.311-6.154,30.719-6.154c10.406,0,20.816,2.052,30.719,6.154
			c19.81,8.205,35.238,23.634,43.443,43.444c8.203,19.808,8.203,41.627-0.002,61.436
			C449.163,234.751,439.332,246.845,426.777,255.529z"/>
	</g>
</g>
<g>
	<g>
		<path d="M441.094,164.694c-10.113-24.415-33.723-40.19-60.15-40.19c-8.524,0-16.889,1.675-24.862,4.978
			c-16.036,6.643-28.535,19.152-35.191,35.221c-6.656,16.07-6.664,33.753-0.021,49.79c10.113,24.415,33.723,40.19,60.15,40.19
			c8.523,0,16.887-1.675,24.861-4.978c16.055-6.651,28.561-19.156,35.213-35.212C447.745,198.436,447.744,180.75,441.094,164.694z
			 M412.994,202.852c-3.542,8.551-10.202,15.21-18.752,18.752c-4.265,1.767-8.714,2.662-13.222,2.662
			c-14.08,0-26.66-8.406-32.049-21.415c-7.311-17.651,1.1-37.96,18.752-45.271c4.265-1.766,8.713-2.662,13.222-2.662
			c14.081,0,26.66,8.406,32.048,21.415C416.534,184.885,416.534,194.303,412.994,202.852z"/>
	</g>
</g>
<g>
</g>
<g>
</g>
<g>
</g>
<g>
</g>
<g>
</g>
<g>
</g>
<g>
</g>
<g>
</g>
<g>
</g>
<g>
</g>
<g>
</g>
<g>
</g>
<g>
</g>
<g>
</g>
<g>
</g>
</svg>
